<?xml version="1.0" standalone="no"?>
<!DOCTYPE svg PUBLIC "-//W3C//DTD SVG 20010904//EN"
 "http://www.w3.org/TR/2001/REC-SVG-20010904/DTD/svg10.dtd">
<svg version="1.0" xmlns="http://www.w3.org/2000/svg"
 width="500.000000pt" height="500.000000pt" viewBox="0 0 500.000000 500.000000"
 preserveAspectRatio="xMidYMid meet">
<metadata>
Created by potrace 1.11, written by Peter Selinger 2001-2013
</metadata>
<g transform="translate(0.000000,500.000000) scale(0.100000,-0.100000)"
fill="#000000" stroke="none">
<path d="M0 2500 l0 -2500 2500 0 2500 0 0 2500 0 2500 -2500 0 -2500 0 0
-2500z m2176 1932 c219 -184 298 -470 205 -741 -18 -51 -29 -97 -24 -101 4 -4
46 -33 93 -66 47 -32 140 -112 208 -178 67 -65 124 -117 125 -115 2 2 9 29 16
60 25 116 124 278 213 351 56 45 134 98 145 98 9 0 71 -95 101 -156 63 -126
76 -335 29 -479 -30 -91 -81 -181 -145 -255 l-44 -51 50 -112 c50 -113 97
-248 127 -367 9 -36 17 -70 20 -76 2 -6 37 21 77 61 130 125 284 184 477 185
l94 0 -7 -92 c-8 -112 -28 -193 -67 -275 -84 -178 -253 -316 -439 -361 l-70
-17 0 -197 c0 -109 2 -198 4 -198 2 0 26 18 52 40 60 50 169 104 249 125 33 9
109 18 169 22 l109 6 -7 -97 c-9 -124 -27 -192 -76 -292 -85 -173 -255 -308
-447 -354 l-53 -12 0 -144 0 -144 -115 0 -115 0 0 143 0 142 -87 27 c-116 36
-202 88 -288 173 -130 130 -184 256 -193 444 l-5 114 104 -6 c171 -11 272 -45
396 -134 l73 -52 0 197 0 198 -59 12 c-171 35 -359 186 -439 352 -54 110 -72
184 -72 292 l0 88 88 0 c111 0 205 -20 293 -63 47 -22 69 -29 69 -20 0 33
-104 273 -118 273 -4 -1 -34 -7 -67 -15 -78 -19 -223 -19 -305 0 -36 9 -103
35 -150 58 -110 54 -228 167 -288 277 -23 41 -42 80 -42 86 0 14 163 89 225
103 28 7 86 15 130 19 l79 7 -54 46 c-72 62 -200 149 -217 149 -8 0 -29 -11
-46 -24 -50 -37 -147 -83 -218 -102 -100 -27 -263 -23 -361 8 -108 36 -195 87
-278 165 l-71 68 87 77 c54 47 118 92 164 115 l75 37 -40 9 c-22 4 -131 10
-242 14 l-202 6 -3 115 -3 115 200 -6 c231 -6 380 -29 534 -80 l101 -34 0 99
c0 121 20 212 65 302 33 65 123 195 136 196 3 0 37 -26 75 -58z"/>
</g>
</svg>
